<?xml version="1.0" encoding="UTF-8"?>
<svg width="27px" height="30px" viewBox="0 0 27 30" version="1.1" xmlns="http://www.w3.org/2000/svg" xmlns:xlink="http://www.w3.org/1999/xlink">
    <!-- Generator: Sketch 46.2 (44496) - http://www.bohemiancoding.com/sketch -->
    <title>Artboard</title>
    <desc>Created with Sketch.</desc>
    <defs></defs>
    <g id="Page-1" stroke="none" stroke-width="1" fill="none" fill-rule="evenodd">
        <g id="Artboard" fill="#FFFFFF">
            <path d="M26.2522634,7.74551395 C25.3136462,8.15009033 24.2941137,8.44138532 23.2422152,8.5546667 C24.3264798,7.9073445 25.1518157,6.88781204 25.540209,5.67408291 C24.5368596,6.27285595 23.4040457,6.70979843 22.2226827,6.9363612 C21.2678825,5.91682874 19.9085058,5.28568959 18.4034817,5.28568959 C15.5067149,5.28568959 13.176355,7.63223257 13.176355,10.5128164 C13.176355,10.9173927 13.2249041,11.3219691 13.3058194,11.7103624 C8.96876065,11.4837997 5.1010105,9.41236862 2.52790476,6.24048984 C2.07477922,7.01727648 1.81585034,7.9073445 1.81585034,8.8783278 C1.81585034,10.69083 2.73828447,12.2929524 4.14621026,13.2315696 C3.28850834,13.1992035 2.47935559,12.9564577 1.78348423,12.5680643 L1.78348423,12.6327966 C1.78348423,15.1735362 3.57980333,17.2773334 5.97489547,17.762825 C5.53795299,17.8761064 5.06864439,17.9408386 4.5993358,17.9408386 C4.25949164,17.9408386 3.93583054,17.9084725 3.61216944,17.8599233 C4.2756747,19.9313544 6.20145824,21.4363785 8.49945205,21.4849277 C6.70313295,22.8928534 4.4536883,23.7181892 2.010047,23.7181892 C1.57310451,23.7181892 1.16852814,23.7020062 0.747768706,23.653457 C3.06194557,25.1422981 5.81306492,26 8.77456399,26 C18.3872987,26 23.6467915,18.0379369 23.6467915,11.1277724 C23.6467915,10.9012097 23.6467915,10.6746469 23.6306085,10.4480841 C24.6501409,9.70366361 25.540209,8.78122947 26.2522634,7.74551395 Z" id=""></path>
        </g>
    </g>
</svg>
